<svg xmlns="http://www.w3.org/2000/svg" width="1262" height="694">
 <!-- Created with Image Occlusion Enhanced -->
 <g>
  <title>Labels</title>
 </g>
 <g>
  <title>Masks</title>
  <rect id="62ba5b31de894fbd9627d569f7f2c077-oa-1" height="26.08696" width="89.13044" y="47.30437" x="133.6521" stroke="#2D2D2D" fill="#FFEBA2"/>
  <rect id="62ba5b31de894fbd9627d569f7f2c077-oa-2" height="58.69565" width="195.65218" y="171.21742" x="79.30427" stroke="#2D2D2D" fill="#FFEBA2"/>
  <rect id="62ba5b31de894fbd9627d569f7f2c077-oa-3" height="30.43478" width="158.69566" y="266.86959" x="101.0434" stroke="#2D2D2D" fill="#FFEBA2"/>
  <rect id="62ba5b31de894fbd9627d569f7f2c077-oa-4" height="32.6087" width="267.39131" y="358.17395" x="46.69557" stroke="#2D2D2D" fill="#FFEBA2"/>
  <rect id="62ba5b31de894fbd9627d569f7f2c077-oa-5" height="30.43478" width="108.69566" y="445.13047" x="122.78253" stroke="#2D2D2D" fill="#FFEBA2"/>
  <rect id="62ba5b31de894fbd9627d569f7f2c077-oa-6" height="58.69565" width="206.52175" y="514.69569" x="77.13035" stroke="#2D2D2D" fill="#FFEBA2"/>
  <rect id="62ba5b31de894fbd9627d569f7f2c077-oa-7" height="32.6087" width="271.73914" y="625.56526" x="44.52166" stroke="#2D2D2D" fill="#FFEBA2"/>
  <rect id="62ba5b31de894fbd9627d569f7f2c077-oa-8" height="47.82609" width="95.65218" y="582.087" x="370.60862" stroke="#2D2D2D" fill="#FFEBA2"/>
  <rect id="62ba5b31de894fbd9627d569f7f2c077-oa-9" height="78.26087" width="291.30436" y="588.60873" x="520.60863" stroke="#2D2D2D" fill="#FFEBA2"/>
  <rect id="62ba5b31de894fbd9627d569f7f2c077-oa-10" height="43.47826" width="139.13044" y="490.78264" x="605.39124" stroke="#2D2D2D" fill="#FFEBA2"/>
  <rect id="62ba5b31de894fbd9627d569f7f2c077-oa-11" height="39.13044" width="171.73914" y="414.69569" x="585.82602" stroke="#2D2D2D" fill="#FFEBA2"/>
  <rect id="62ba5b31de894fbd9627d569f7f2c077-oa-12" height="28.26087" width="78.26087" y="629.91308" x="1029.3043" stroke="#2D2D2D" fill="#FFEBA2"/>
  <rect id="62ba5b31de894fbd9627d569f7f2c077-oa-13" height="58.69565" width="276.08696" y="512.52178" x="927.13038" stroke="#2D2D2D" fill="#FFEBA2"/>
  <rect id="62ba5b31de894fbd9627d569f7f2c077-oa-14" height="30.43478" width="206.52175" y="429.91308" x="957.56516" stroke="#2D2D2D" fill="#FFEBA2"/>
  <rect id="62ba5b31de894fbd9627d569f7f2c077-oa-15" height="58.69565" width="93.47826" y="351.65221" x="355.39123" stroke="#2D2D2D" fill="#FFEBA2"/>
  <rect id="62ba5b31de894fbd9627d569f7f2c077-oa-16" height="28.26087" width="132.6087" y="156.00003" x="603.21733" stroke="#2D2D2D" fill="#FFEBA2"/>
  <rect id="62ba5b31de894fbd9627d569f7f2c077-oa-17" height="23.91304" width="239.13044" y="225.56525" x="542.34776" stroke="#2D2D2D" fill="#FFEBA2"/>
  <rect id="62ba5b31de894fbd9627d569f7f2c077-oa-18" height="21.73913" width="139.13044" y="316.8696" x="587.99993" stroke="#2D2D2D" fill="#FFEBA2"/>
 </g>
</svg>