<svg xmlns="http://www.w3.org/2000/svg" width="1648" height="690">
 <!-- Created with Image Occlusion Enhanced -->
 <g>
  <title>Labels</title>
 </g>
 <g>
  <title>Masks</title>
  <rect id="9668bac4580141d59e8ea7ac1056c535-oa-1" height="65.71429" width="171.42858" y="49.99999" x="57.71432" stroke="#2D2D2D" fill="#FFEBA2"/>
  <rect id="9668bac4580141d59e8ea7ac1056c535-oa-2" height="25.71429" width="88.57143" y="167.14285" x="106.28575" stroke="#2D2D2D" fill="#FFEBA2"/>
  <rect id="9668bac4580141d59e8ea7ac1056c535-oa-3" height="65.71429" width="157.14286" y="321.42857" x="66.28575" stroke="#2D2D2D" fill="#FFEBA2"/>
  <rect id="9668bac4580141d59e8ea7ac1056c535-oa-4" height="94.28572" width="154.28572" y="530" x="66.28575" stroke="#2D2D2D" fill="#FFEBA2"/>
  <rect id="9668bac4580141d59e8ea7ac1056c535-oa-5" height="40" width="188.57143" y="584.28572" x="274.85718" stroke="#2D2D2D" fill="#FFEBA2"/>
  <rect id="9668bac4580141d59e8ea7ac1056c535-oa-6" height="65.71429" width="154.28572" y="318.57143" x="289.1429" stroke="#2D2D2D" fill="#FFEBA2"/>
  <rect id="9668bac4580141d59e8ea7ac1056c535-oa-7" height="42.85714" width="168.57143" y="155.71428" x="286.28576" stroke="#2D2D2D" fill="#FFEBA2"/>
  <rect id="9668bac4580141d59e8ea7ac1056c535-oa-8" height="62.85714" width="165.71429" y="52.85714" x="280.57147" stroke="#2D2D2D" fill="#FFEBA2"/>
  <rect id="9668bac4580141d59e8ea7ac1056c535-oa-9" height="68.57143" width="134.28572" y="49.99999" x="532.00005" stroke="#2D2D2D" fill="#FFEBA2"/>
  <rect id="9668bac4580141d59e8ea7ac1056c535-oa-10" height="42.85714" width="125.71429" y="152.85714" x="537.71433" stroke="#2D2D2D" fill="#FFEBA2"/>
  <rect id="9668bac4580141d59e8ea7ac1056c535-oa-11" height="28.57143" width="91.42857" y="561.42858" x="503.42862" stroke="#2D2D2D" fill="#FFEBA2"/>
  <rect id="9668bac4580141d59e8ea7ac1056c535-oa-12" height="28.57143" width="117.14286" y="592.85715" x="560.57148" stroke="#2D2D2D" fill="#FFEBA2"/>
  <rect id="9668bac4580141d59e8ea7ac1056c535-oa-13" height="54.28572" width="140" y="55.71428" x="754.85719" stroke="#2D2D2D" fill="#FFEBA2"/>
  <rect id="9668bac4580141d59e8ea7ac1056c535-oa-14" height="28.57143" width="125.71429" y="161.42857" x="772.00005" stroke="#2D2D2D" fill="#FFEBA2"/>
  <rect id="9668bac4580141d59e8ea7ac1056c535-oa-15" height="62.85714" width="151.42857" y="321.42857" x="743.42862" stroke="#2D2D2D" fill="#FFEBA2"/>
  <rect id="9668bac4580141d59e8ea7ac1056c535-oa-16" height="42.85714" width="154.28572" y="595.71429" x="746.28576" stroke="#2D2D2D" fill="#FFEBA2"/>
  <rect id="9668bac4580141d59e8ea7ac1056c535-oa-17" height="37.14286" width="80" y="67.14285" x="1006.28577" stroke="#2D2D2D" fill="#FFEBA2"/>
  <rect id="9668bac4580141d59e8ea7ac1056c535-oa-18" height="65.71429" width="134.28572" y="164.28571" x="992.00006" stroke="#2D2D2D" fill="#FFEBA2"/>
  <rect id="9668bac4580141d59e8ea7ac1056c535-oa-19" height="25.71429" width="125.71429" y="595.71429" x="989.14291" stroke="#2D2D2D" fill="#FFEBA2"/>
  <rect id="9668bac4580141d59e8ea7ac1056c535-oa-20" height="60" width="111.42857" y="52.85714" x="1223.42863" stroke="#2D2D2D" fill="#FFEBA2"/>
  <rect id="9668bac4580141d59e8ea7ac1056c535-oa-21" height="65.71429" width="145.71429" y="161.42857" x="1209.14292" stroke="#2D2D2D" fill="#FFEBA2"/>
  <rect id="9668bac4580141d59e8ea7ac1056c535-oa-22" height="34.28572" width="102.85715" y="592.85715" x="1223.42863" stroke="#2D2D2D" fill="#FFEBA2"/>
  <rect id="9668bac4580141d59e8ea7ac1056c535-oa-23" height="62.85714" width="125.71429" y="527.14286" x="1440.57149" stroke="#2D2D2D" fill="#FFEBA2"/>
  <rect id="9668bac4580141d59e8ea7ac1056c535-oa-24" height="65.71429" width="108.57143" y="324.28571" x="1454.85721" stroke="#2D2D2D" fill="#FFEBA2"/>
  <rect id="9668bac4580141d59e8ea7ac1056c535-oa-25" height="42.85714" width="100" y="161.42857" x="1457.71435" stroke="#2D2D2D" fill="#FFEBA2"/>
  <rect id="9668bac4580141d59e8ea7ac1056c535-oa-26" height="51.42857" width="108.57143" y="52.85714" x="1443.42864" stroke="#2D2D2D" fill="#FFEBA2"/>
 </g>
</svg>